<?xml version="1.0" encoding="utf-8" standalone="no"?>
<!DOCTYPE svg PUBLIC "-//W3C//DTD SVG 1.1//EN"
  "http://www.w3.org/Graphics/SVG/1.1/DTD/svg11.dtd">
<!-- Created with matplotlib (https://matplotlib.org/) -->
<svg height="345.6pt" version="1.1" viewBox="0 0 460.8 345.6" width="460.8pt" xmlns="http://www.w3.org/2000/svg" xmlns:xlink="http://www.w3.org/1999/xlink">
 <metadata>
  <rdf:RDF xmlns:cc="http://creativecommons.org/ns#" xmlns:dc="http://purl.org/dc/elements/1.1/" xmlns:rdf="http://www.w3.org/1999/02/22-rdf-syntax-ns#">
   <cc:Work>
    <dc:type rdf:resource="http://purl.org/dc/dcmitype/StillImage"/>
    <dc:date>2023-10-19T14:18:43.378197</dc:date>
    <dc:format>image/svg+xml</dc:format>
    <dc:creator>
     <cc:Agent>
      <dc:title>Matplotlib v3.3.2, https://matplotlib.org/</dc:title>
     </cc:Agent>
    </dc:creator>
   </cc:Work>
  </rdf:RDF>
 </metadata>
 <defs>
  <style type="text/css">*{stroke-linecap:butt;stroke-linejoin:round;}</style>
 </defs>
 <g id="figure_1">
  <g id="patch_1">
   <path d="M 0 345.6 
L 460.8 345.6 
L 460.8 0 
L 0 0 
z
" style="fill:#ffffff;"/>
  </g>
  <g id="axes_1">
   <g id="patch_2">
    <path d="M 33.685 303.64 
L 443.655 303.64 
L 443.655 10.8 
L 33.685 10.8 
z
" style="fill:#ffffff;"/>
   </g>
   <g id="matplotlib.axis_1">
    <g id="xtick_1">
     <g id="line2d_1">
      <defs>
       <path d="M 0 0 
L 0 3.5 
" id="m058fcb68a2" style="stroke:#000000;stroke-width:0.8;"/>
      </defs>
      <g>
       <use style="stroke:#000000;stroke-width:0.8;" x="33.685" xlink:href="#m058fcb68a2" y="303.64"/>
      </g>
     </g>
     <g id="text_1">
      <!-- 0 -->
      <g transform="translate(30.50375 318.238437)scale(0.1 -0.1)">
       <defs>
        <path d="M 31.78125 66.40625 
Q 24.171875 66.40625 20.328125 58.90625 
Q 16.5 51.421875 16.5 36.375 
Q 16.5 21.390625 20.328125 13.890625 
Q 24.171875 6.390625 31.78125 6.390625 
Q 39.453125 6.390625 43.28125 13.890625 
Q 47.125 21.390625 47.125 36.375 
Q 47.125 51.421875 43.28125 58.90625 
Q 39.453125 66.40625 31.78125 66.40625 
z
M 31.78125 74.21875 
Q 44.046875 74.21875 50.515625 64.515625 
Q 56.984375 54.828125 56.984375 36.375 
Q 56.984375 17.96875 50.515625 8.265625 
Q 44.046875 -1.421875 31.78125 -1.421875 
Q 19.53125 -1.421875 13.0625 8.265625 
Q 6.59375 17.96875 6.59375 36.375 
Q 6.59375 54.828125 13.0625 64.515625 
Q 19.53125 74.21875 31.78125 74.21875 
z
" id="DejaVuSans-48"/>
       </defs>
       <use xlink:href="#DejaVuSans-48"/>
      </g>
     </g>
    </g>
    <g id="xtick_2">
     <g id="line2d_2">
      <g>
       <use style="stroke:#000000;stroke-width:0.8;" x="115.679" xlink:href="#m058fcb68a2" y="303.64"/>
      </g>
     </g>
     <g id="text_2">
      <!-- 2 -->
      <g transform="translate(112.49775 318.238437)scale(0.1 -0.1)">
       <defs>
        <path d="M 19.1875 8.296875 
L 53.609375 8.296875 
L 53.609375 0 
L 7.328125 0 
L 7.328125 8.296875 
Q 12.9375 14.109375 22.625 23.890625 
Q 32.328125 33.6875 34.8125 36.53125 
Q 39.546875 41.84375 41.421875 45.53125 
Q 43.3125 49.21875 43.3125 52.78125 
Q 43.3125 58.59375 39.234375 62.25 
Q 35.15625 65.921875 28.609375 65.921875 
Q 23.96875 65.921875 18.8125 64.3125 
Q 13.671875 62.703125 7.8125 59.421875 
L 7.8125 69.390625 
Q 13.765625 71.78125 18.9375 73 
Q 24.125 74.21875 28.421875 74.21875 
Q 39.75 74.21875 46.484375 68.546875 
Q 53.21875 62.890625 53.21875 53.421875 
Q 53.21875 48.921875 51.53125 44.890625 
Q 49.859375 40.875 45.40625 35.40625 
Q 44.1875 33.984375 37.640625 27.21875 
Q 31.109375 20.453125 19.1875 8.296875 
z
" id="DejaVuSans-50"/>
       </defs>
       <use xlink:href="#DejaVuSans-50"/>
      </g>
     </g>
    </g>
    <g id="xtick_3">
     <g id="line2d_3">
      <g>
       <use style="stroke:#000000;stroke-width:0.8;" x="197.673" xlink:href="#m058fcb68a2" y="303.64"/>
      </g>
     </g>
     <g id="text_3">
      <!-- 4 -->
      <g transform="translate(194.49175 318.238437)scale(0.1 -0.1)">
       <defs>
        <path d="M 37.796875 64.3125 
L 12.890625 25.390625 
L 37.796875 25.390625 
z
M 35.203125 72.90625 
L 47.609375 72.90625 
L 47.609375 25.390625 
L 58.015625 25.390625 
L 58.015625 17.1875 
L 47.609375 17.1875 
L 47.609375 0 
L 37.796875 0 
L 37.796875 17.1875 
L 4.890625 17.1875 
L 4.890625 26.703125 
z
" id="DejaVuSans-52"/>
       </defs>
       <use xlink:href="#DejaVuSans-52"/>
      </g>
     </g>
    </g>
    <g id="xtick_4">
     <g id="line2d_4">
      <g>
       <use style="stroke:#000000;stroke-width:0.8;" x="279.667" xlink:href="#m058fcb68a2" y="303.64"/>
      </g>
     </g>
     <g id="text_4">
      <!-- 6 -->
      <g transform="translate(276.48575 318.238437)scale(0.1 -0.1)">
       <defs>
        <path d="M 33.015625 40.375 
Q 26.375 40.375 22.484375 35.828125 
Q 18.609375 31.296875 18.609375 23.390625 
Q 18.609375 15.53125 22.484375 10.953125 
Q 26.375 6.390625 33.015625 6.390625 
Q 39.65625 6.390625 43.53125 10.953125 
Q 47.40625 15.53125 47.40625 23.390625 
Q 47.40625 31.296875 43.53125 35.828125 
Q 39.65625 40.375 33.015625 40.375 
z
M 52.59375 71.296875 
L 52.59375 62.3125 
Q 48.875 64.0625 45.09375 64.984375 
Q 41.3125 65.921875 37.59375 65.921875 
Q 27.828125 65.921875 22.671875 59.328125 
Q 17.53125 52.734375 16.796875 39.40625 
Q 19.671875 43.65625 24.015625 45.921875 
Q 28.375 48.1875 33.59375 48.1875 
Q 44.578125 48.1875 50.953125 41.515625 
Q 57.328125 34.859375 57.328125 23.390625 
Q 57.328125 12.15625 50.6875 5.359375 
Q 44.046875 -1.421875 33.015625 -1.421875 
Q 20.359375 -1.421875 13.671875 8.265625 
Q 6.984375 17.96875 6.984375 36.375 
Q 6.984375 53.65625 15.1875 63.9375 
Q 23.390625 74.21875 37.203125 74.21875 
Q 40.921875 74.21875 44.703125 73.484375 
Q 48.484375 72.75 52.59375 71.296875 
z
" id="DejaVuSans-54"/>
       </defs>
       <use xlink:href="#DejaVuSans-54"/>
      </g>
     </g>
    </g>
    <g id="xtick_5">
     <g id="line2d_5">
      <g>
       <use style="stroke:#000000;stroke-width:0.8;" x="361.661" xlink:href="#m058fcb68a2" y="303.64"/>
      </g>
     </g>
     <g id="text_5">
      <!-- 8 -->
      <g transform="translate(358.47975 318.238437)scale(0.1 -0.1)">
       <defs>
        <path d="M 31.78125 34.625 
Q 24.75 34.625 20.71875 30.859375 
Q 16.703125 27.09375 16.703125 20.515625 
Q 16.703125 13.921875 20.71875 10.15625 
Q 24.75 6.390625 31.78125 6.390625 
Q 38.8125 6.390625 42.859375 10.171875 
Q 46.921875 13.96875 46.921875 20.515625 
Q 46.921875 27.09375 42.890625 30.859375 
Q 38.875 34.625 31.78125 34.625 
z
M 21.921875 38.8125 
Q 15.578125 40.375 12.03125 44.71875 
Q 8.5 49.078125 8.5 55.328125 
Q 8.5 64.0625 14.71875 69.140625 
Q 20.953125 74.21875 31.78125 74.21875 
Q 42.671875 74.21875 48.875 69.140625 
Q 55.078125 64.0625 55.078125 55.328125 
Q 55.078125 49.078125 51.53125 44.71875 
Q 48 40.375 41.703125 38.8125 
Q 48.828125 37.15625 52.796875 32.3125 
Q 56.78125 27.484375 56.78125 20.515625 
Q 56.78125 9.90625 50.3125 4.234375 
Q 43.84375 -1.421875 31.78125 -1.421875 
Q 19.734375 -1.421875 13.25 4.234375 
Q 6.78125 9.90625 6.78125 20.515625 
Q 6.78125 27.484375 10.78125 32.3125 
Q 14.796875 37.15625 21.921875 38.8125 
z
M 18.3125 54.390625 
Q 18.3125 48.734375 21.84375 45.5625 
Q 25.390625 42.390625 31.78125 42.390625 
Q 38.140625 42.390625 41.71875 45.5625 
Q 45.3125 48.734375 45.3125 54.390625 
Q 45.3125 60.0625 41.71875 63.234375 
Q 38.140625 66.40625 31.78125 66.40625 
Q 25.390625 66.40625 21.84375 63.234375 
Q 18.3125 60.0625 18.3125 54.390625 
z
" id="DejaVuSans-56"/>
       </defs>
       <use xlink:href="#DejaVuSans-56"/>
      </g>
     </g>
    </g>
    <g id="xtick_6">
     <g id="line2d_6">
      <g>
       <use style="stroke:#000000;stroke-width:0.8;" x="443.655" xlink:href="#m058fcb68a2" y="303.64"/>
      </g>
     </g>
     <g id="text_6">
      <!-- 10 -->
      <g transform="translate(437.2925 318.238437)scale(0.1 -0.1)">
       <defs>
        <path d="M 12.40625 8.296875 
L 28.515625 8.296875 
L 28.515625 63.921875 
L 10.984375 60.40625 
L 10.984375 69.390625 
L 28.421875 72.90625 
L 38.28125 72.90625 
L 38.28125 8.296875 
L 54.390625 8.296875 
L 54.390625 0 
L 12.40625 0 
z
" id="DejaVuSans-49"/>
       </defs>
       <use xlink:href="#DejaVuSans-49"/>
       <use x="63.623047" xlink:href="#DejaVuSans-48"/>
      </g>
     </g>
    </g>
    <g id="text_7">
     <!-- $\tau$ -->
     <g transform="translate(235.62 331.916562)scale(0.1 -0.1)">
      <defs>
       <path d="M 32.859375 9.96875 
Q 34.1875 7.625 39.453125 7.625 
L 43.75 7.625 
L 42.28125 0 
L 36.921875 0 
Q 28.125 0 25 4.6875 
Q 21.921875 9.46875 23.96875 19.828125 
L 29 45.703125 
L 8.453125 45.703125 
L 10.203125 54.6875 
L 60.640625 54.6875 
L 58.890625 45.703125 
L 38.1875 45.703125 
L 33.015625 19.28125 
Q 31.640625 12.203125 32.859375 9.96875 
z
" id="DejaVuSans-Oblique-964"/>
      </defs>
      <use transform="translate(0 0.3125)" xlink:href="#DejaVuSans-Oblique-964"/>
     </g>
    </g>
   </g>
   <g id="matplotlib.axis_2">
    <g id="ytick_1">
     <g id="line2d_7">
      <defs>
       <path d="M 0 0 
L -3.5 0 
" id="mcedfb6ab1f" style="stroke:#000000;stroke-width:0.8;"/>
      </defs>
      <g>
       <use style="stroke:#000000;stroke-width:0.8;" x="33.685" xlink:href="#mcedfb6ab1f" y="289.275373"/>
      </g>
     </g>
     <g id="text_8">
      <!-- 0.0 -->
      <g transform="translate(10.781875 293.074592)scale(0.1 -0.1)">
       <defs>
        <path d="M 10.6875 12.40625 
L 21 12.40625 
L 21 0 
L 10.6875 0 
z
" id="DejaVuSans-46"/>
       </defs>
       <use xlink:href="#DejaVuSans-48"/>
       <use x="63.623047" xlink:href="#DejaVuSans-46"/>
       <use x="95.410156" xlink:href="#DejaVuSans-48"/>
      </g>
     </g>
    </g>
    <g id="ytick_2">
     <g id="line2d_8">
      <g>
       <use style="stroke:#000000;stroke-width:0.8;" x="33.685" xlink:href="#mcedfb6ab1f" y="253.69048"/>
      </g>
     </g>
     <g id="text_9">
      <!-- 0.1 -->
      <g transform="translate(10.781875 257.489698)scale(0.1 -0.1)">
       <use xlink:href="#DejaVuSans-48"/>
       <use x="63.623047" xlink:href="#DejaVuSans-46"/>
       <use x="95.410156" xlink:href="#DejaVuSans-49"/>
      </g>
     </g>
    </g>
    <g id="ytick_3">
     <g id="line2d_9">
      <g>
       <use style="stroke:#000000;stroke-width:0.8;" x="33.685" xlink:href="#mcedfb6ab1f" y="218.105586"/>
      </g>
     </g>
     <g id="text_10">
      <!-- 0.2 -->
      <g transform="translate(10.781875 221.904804)scale(0.1 -0.1)">
       <use xlink:href="#DejaVuSans-48"/>
       <use x="63.623047" xlink:href="#DejaVuSans-46"/>
       <use x="95.410156" xlink:href="#DejaVuSans-50"/>
      </g>
     </g>
    </g>
    <g id="ytick_4">
     <g id="line2d_10">
      <g>
       <use style="stroke:#000000;stroke-width:0.8;" x="33.685" xlink:href="#mcedfb6ab1f" y="182.520692"/>
      </g>
     </g>
     <g id="text_11">
      <!-- 0.3 -->
      <g transform="translate(10.781875 186.319911)scale(0.1 -0.1)">
       <defs>
        <path d="M 40.578125 39.3125 
Q 47.65625 37.796875 51.625 33 
Q 55.609375 28.21875 55.609375 21.1875 
Q 55.609375 10.40625 48.1875 4.484375 
Q 40.765625 -1.421875 27.09375 -1.421875 
Q 22.515625 -1.421875 17.65625 -0.515625 
Q 12.796875 0.390625 7.625 2.203125 
L 7.625 11.71875 
Q 11.71875 9.328125 16.59375 8.109375 
Q 21.484375 6.890625 26.8125 6.890625 
Q 36.078125 6.890625 40.9375 10.546875 
Q 45.796875 14.203125 45.796875 21.1875 
Q 45.796875 27.640625 41.28125 31.265625 
Q 36.765625 34.90625 28.71875 34.90625 
L 20.21875 34.90625 
L 20.21875 43.015625 
L 29.109375 43.015625 
Q 36.375 43.015625 40.234375 45.921875 
Q 44.09375 48.828125 44.09375 54.296875 
Q 44.09375 59.90625 40.109375 62.90625 
Q 36.140625 65.921875 28.71875 65.921875 
Q 24.65625 65.921875 20.015625 65.03125 
Q 15.375 64.15625 9.8125 62.3125 
L 9.8125 71.09375 
Q 15.4375 72.65625 20.34375 73.4375 
Q 25.25 74.21875 29.59375 74.21875 
Q 40.828125 74.21875 47.359375 69.109375 
Q 53.90625 64.015625 53.90625 55.328125 
Q 53.90625 49.265625 50.4375 45.09375 
Q 46.96875 40.921875 40.578125 39.3125 
z
" id="DejaVuSans-51"/>
       </defs>
       <use xlink:href="#DejaVuSans-48"/>
       <use x="63.623047" xlink:href="#DejaVuSans-46"/>
       <use x="95.410156" xlink:href="#DejaVuSans-51"/>
      </g>
     </g>
    </g>
    <g id="ytick_5">
     <g id="line2d_11">
      <g>
       <use style="stroke:#000000;stroke-width:0.8;" x="33.685" xlink:href="#mcedfb6ab1f" y="146.935798"/>
      </g>
     </g>
     <g id="text_12">
      <!-- 0.4 -->
      <g transform="translate(10.781875 150.735017)scale(0.1 -0.1)">
       <use xlink:href="#DejaVuSans-48"/>
       <use x="63.623047" xlink:href="#DejaVuSans-46"/>
       <use x="95.410156" xlink:href="#DejaVuSans-52"/>
      </g>
     </g>
    </g>
    <g id="ytick_6">
     <g id="line2d_12">
      <g>
       <use style="stroke:#000000;stroke-width:0.8;" x="33.685" xlink:href="#mcedfb6ab1f" y="111.350904"/>
      </g>
     </g>
     <g id="text_13">
      <!-- 0.5 -->
      <g transform="translate(10.781875 115.150123)scale(0.1 -0.1)">
       <defs>
        <path d="M 10.796875 72.90625 
L 49.515625 72.90625 
L 49.515625 64.59375 
L 19.828125 64.59375 
L 19.828125 46.734375 
Q 21.96875 47.46875 24.109375 47.828125 
Q 26.265625 48.1875 28.421875 48.1875 
Q 40.625 48.1875 47.75 41.5 
Q 54.890625 34.8125 54.890625 23.390625 
Q 54.890625 11.625 47.5625 5.09375 
Q 40.234375 -1.421875 26.90625 -1.421875 
Q 22.3125 -1.421875 17.546875 -0.640625 
Q 12.796875 0.140625 7.71875 1.703125 
L 7.71875 11.625 
Q 12.109375 9.234375 16.796875 8.0625 
Q 21.484375 6.890625 26.703125 6.890625 
Q 35.15625 6.890625 40.078125 11.328125 
Q 45.015625 15.765625 45.015625 23.390625 
Q 45.015625 31 40.078125 35.4375 
Q 35.15625 39.890625 26.703125 39.890625 
Q 22.75 39.890625 18.8125 39.015625 
Q 14.890625 38.140625 10.796875 36.28125 
z
" id="DejaVuSans-53"/>
       </defs>
       <use xlink:href="#DejaVuSans-48"/>
       <use x="63.623047" xlink:href="#DejaVuSans-46"/>
       <use x="95.410156" xlink:href="#DejaVuSans-53"/>
      </g>
     </g>
    </g>
    <g id="ytick_7">
     <g id="line2d_13">
      <g>
       <use style="stroke:#000000;stroke-width:0.8;" x="33.685" xlink:href="#mcedfb6ab1f" y="75.76601"/>
      </g>
     </g>
     <g id="text_14">
      <!-- 0.6 -->
      <g transform="translate(10.781875 79.565229)scale(0.1 -0.1)">
       <use xlink:href="#DejaVuSans-48"/>
       <use x="63.623047" xlink:href="#DejaVuSans-46"/>
       <use x="95.410156" xlink:href="#DejaVuSans-54"/>
      </g>
     </g>
    </g>
    <g id="ytick_8">
     <g id="line2d_14">
      <g>
       <use style="stroke:#000000;stroke-width:0.8;" x="33.685" xlink:href="#mcedfb6ab1f" y="40.181117"/>
      </g>
     </g>
     <g id="text_15">
      <!-- 0.7 -->
      <g transform="translate(10.781875 43.980335)scale(0.1 -0.1)">
       <defs>
        <path d="M 8.203125 72.90625 
L 55.078125 72.90625 
L 55.078125 68.703125 
L 28.609375 0 
L 18.3125 0 
L 43.21875 64.59375 
L 8.203125 64.59375 
z
" id="DejaVuSans-55"/>
       </defs>
       <use xlink:href="#DejaVuSans-48"/>
       <use x="63.623047" xlink:href="#DejaVuSans-46"/>
       <use x="95.410156" xlink:href="#DejaVuSans-55"/>
      </g>
     </g>
    </g>
   </g>
   <g id="line2d_15">
    <path clip-path="url(#pec74757aea)" d="M 33.685 24.110909 
L 37.805302 39.126201 
L 41.925603 52.661253 
L 46.045905 64.903661 
L 50.166206 76.014926 
L 54.286508 86.133195 
L 58.406809 95.377704 
L 62.527111 103.849438 
L 66.647412 111.637635 
L 70.767714 118.817807 
L 74.888015 125.455796 
L 79.008317 131.607623 
L 83.128618 137.324426 
L 87.24892 142.648075 
L 91.369221 147.616993 
L 95.489523 152.264336 
L 99.609824 156.618929 
L 103.730126 160.706549 
L 107.850427 164.550399 
L 111.970729 168.169608 
L 116.09103 171.583049 
L 122.271482 176.351357 
L 128.451935 180.738849 
L 134.632387 184.78543 
L 140.812839 188.525706 
L 146.993291 191.988743 
L 153.173744 195.200616 
L 159.354196 198.183082 
L 165.534648 200.955848 
L 171.715101 203.535608 
L 179.955704 206.700899 
L 188.196307 209.580021 
L 196.43691 212.199578 
L 204.677513 214.58129 
L 212.918116 216.743886 
L 221.158719 218.703796 
L 229.399322 220.474753 
L 239.700075 222.440086 
L 250.000829 224.146848 
L 260.301583 225.609532 
L 270.602337 226.838908 
L 280.90309 227.842179 
L 291.203844 228.623445 
L 301.504598 229.182374 
L 311.805352 229.515574 
L 322.106106 229.615301 
L 332.406859 229.46844 
L 342.707613 229.056424 
L 350.948216 228.518903 
L 359.188819 227.778107 
L 367.429422 226.812422 
L 375.670025 225.594561 
L 381.850477 224.495556 
L 388.03093 223.218179 
L 394.211382 221.742096 
L 400.391834 220.042529 
L 406.572286 218.09059 
L 412.752739 215.851494 
L 418.933191 213.284248 
L 423.053492 211.366132 
L 427.173794 209.263574 
L 431.294095 206.957531 
L 435.414397 204.426642 
L 439.534698 201.646738 
L 443.655 198.590899 
L 443.655 198.590899 
" style="fill:none;stroke:#1f77b4;stroke-linecap:square;stroke-width:1.5;"/>
   </g>
   <g id="line2d_16">
    <path clip-path="url(#pec74757aea)" d="M 33.685 280.590387 
L 35.745151 282.284488 
L 37.805302 283.722982 
L 39.865452 284.941887 
L 41.925603 285.971722 
L 43.985754 286.839176 
L 46.045905 287.566362 
L 50.166206 288.675068 
L 54.286508 289.422359 
L 58.406809 289.900317 
L 62.527111 290.178437 
L 68.707563 290.329091 
L 76.948166 290.212136 
L 87.24892 289.794414 
L 111.970729 288.449168 
L 134.632387 287.320945 
L 155.233894 286.511997 
L 177.895553 285.860484 
L 200.557211 285.433557 
L 225.27902 285.197083 
L 250.000829 285.183519 
L 274.722638 285.392897 
L 297.384296 285.793926 
L 320.045955 286.418122 
L 340.647462 287.20323 
L 361.24897 288.201448 
L 400.391834 290.198382 
L 408.632437 290.319975 
L 414.812889 290.173051 
L 418.933191 289.897455 
L 423.053492 289.422061 
L 427.173794 288.677264 
L 431.294095 287.570492 
L 433.354246 286.843964 
L 435.414397 285.976909 
L 437.474548 284.946946 
L 439.534698 283.727359 
L 441.594849 282.287273 
L 443.655 280.590387 
L 443.655 280.590387 
" style="fill:none;stroke:#ff7f0e;stroke-linecap:square;stroke-width:1.5;"/>
   </g>
   <g id="line2d_17">
    <path clip-path="url(#pec74757aea)" d="M 33.685 207.275886 
L 37.805302 211.988696 
L 41.925603 216.214122 
L 46.045905 220.01677 
L 50.166206 223.45111 
L 54.286508 226.56328 
L 58.406809 229.392417 
L 62.527111 231.971886 
L 66.647412 234.330189 
L 70.767714 236.491903 
L 76.948166 239.411209 
L 83.128618 241.994712 
L 89.30907 244.290889 
L 95.489523 246.339266 
L 101.669975 248.172577 
L 107.850427 249.817824 
L 116.09103 251.757553 
L 124.331633 253.446682 
L 132.572236 254.920078 
L 142.87299 256.501174 
L 153.173744 257.833023 
L 163.474497 258.94974 
L 175.835402 260.042657 
L 188.196307 260.898784 
L 200.557211 261.543899 
L 214.978266 262.05402 
L 229.399322 262.321126 
L 243.820377 262.354869 
L 258.241432 262.156294 
L 272.662487 261.718168 
L 285.023392 261.139675 
L 297.384296 260.356875 
L 309.745201 259.346732 
L 320.045955 258.308416 
L 330.346709 257.066072 
L 340.647462 255.58906 
L 348.888065 254.21217 
L 357.128668 252.634312 
L 365.369271 250.824287 
L 373.609874 248.742907 
L 379.790327 246.974651 
L 385.970779 245.000876 
L 392.151231 242.79106 
L 398.331683 240.307928 
L 404.512136 237.506355 
L 408.632437 235.43482 
L 412.752739 233.17757 
L 416.87304 230.711965 
L 420.993342 228.011484 
L 425.113643 225.045318 
L 429.233945 221.777305 
L 433.354246 218.164972 
L 437.474548 214.158196 
L 441.594849 209.697726 
L 443.655 207.275886 
L 443.655 207.275886 
" style="fill:none;stroke:#2ca02c;stroke-linecap:square;stroke-width:1.5;"/>
   </g>
   <g id="patch_3">
    <path d="M 33.685 303.64 
L 33.685 10.8 
" style="fill:none;stroke:#000000;stroke-linecap:square;stroke-linejoin:miter;stroke-width:0.8;"/>
   </g>
   <g id="patch_4">
    <path d="M 443.655 303.64 
L 443.655 10.8 
" style="fill:none;stroke:#000000;stroke-linecap:square;stroke-linejoin:miter;stroke-width:0.8;"/>
   </g>
   <g id="patch_5">
    <path d="M 33.685 303.64 
L 443.655 303.64 
" style="fill:none;stroke:#000000;stroke-linecap:square;stroke-linejoin:miter;stroke-width:0.8;"/>
   </g>
   <g id="patch_6">
    <path d="M 33.685 10.8 
L 443.655 10.8 
" style="fill:none;stroke:#000000;stroke-linecap:square;stroke-linejoin:miter;stroke-width:0.8;"/>
   </g>
   <g id="legend_1">
    <g id="patch_7">
     <path d="M 297.855 65.478125 
L 436.655 65.478125 
Q 438.655 65.478125 438.655 63.478125 
L 438.655 17.8 
Q 438.655 15.8 436.655 15.8 
L 297.855 15.8 
Q 295.855 15.8 295.855 17.8 
L 295.855 63.478125 
Q 295.855 65.478125 297.855 65.478125 
z
" style="fill:#ffffff;opacity:0.8;stroke:#cccccc;stroke-linejoin:miter;"/>
    </g>
    <g id="line2d_18">
     <path d="M 299.855 25.8 
L 319.855 25.8 
" style="fill:none;stroke:#1f77b4;stroke-linecap:square;stroke-width:1.5;"/>
    </g>
    <g id="line2d_19"/>
    <g id="text_16">
     <!-- $-G(\tau) = \langle c_\uparrow(\tau) c^\dagger_\uparrow(0) \rangle$ -->
     <g transform="translate(327.855 29.3)scale(0.1 -0.1)">
      <defs>
       <path d="M 10.59375 35.5 
L 73.1875 35.5 
L 73.1875 27.203125 
L 10.59375 27.203125 
z
" id="DejaVuSans-8722"/>
       <path d="M 54.59375 10.890625 
L 58.40625 29.984375 
L 42.1875 29.984375 
L 43.703125 38.09375 
L 69.578125 38.09375 
L 63.28125 6 
Q 56.78125 2.4375 49.109375 0.5 
Q 41.453125 -1.421875 33.6875 -1.421875 
Q 19.96875 -1.421875 12.234375 6.1875 
Q 4.5 13.8125 4.5 27.390625 
Q 4.5 38.671875 9.203125 48.84375 
Q 13.921875 59.03125 22.21875 65.828125 
Q 27.4375 70.0625 33.640625 72.140625 
Q 39.84375 74.21875 47.40625 74.21875 
Q 54.25 74.21875 60.515625 72.484375 
Q 66.796875 70.75 72.515625 67.28125 
L 70.515625 56.78125 
Q 66.109375 61.375 60.203125 63.796875 
Q 54.296875 66.21875 47.609375 66.21875 
Q 39.84375 66.21875 33.9375 63.25 
Q 28.03125 60.296875 23.390625 54.109375 
Q 19.4375 48.828125 17.15625 41.671875 
Q 14.890625 34.515625 14.890625 27.09375 
Q 14.890625 16.890625 20.109375 11.734375 
Q 25.34375 6.59375 35.6875 6.59375 
Q 40.875 6.59375 45.703125 7.6875 
Q 50.53125 8.796875 54.59375 10.890625 
z
" id="DejaVuSans-Oblique-71"/>
       <path d="M 31 75.875 
Q 24.46875 64.65625 21.28125 53.65625 
Q 18.109375 42.671875 18.109375 31.390625 
Q 18.109375 20.125 21.3125 9.0625 
Q 24.515625 -2 31 -13.1875 
L 23.1875 -13.1875 
Q 15.875 -1.703125 12.234375 9.375 
Q 8.59375 20.453125 8.59375 31.390625 
Q 8.59375 42.28125 12.203125 53.3125 
Q 15.828125 64.359375 23.1875 75.875 
z
" id="DejaVuSans-40"/>
       <path d="M 8.015625 75.875 
L 15.828125 75.875 
Q 23.140625 64.359375 26.78125 53.3125 
Q 30.421875 42.28125 30.421875 31.390625 
Q 30.421875 20.453125 26.78125 9.375 
Q 23.140625 -1.703125 15.828125 -13.1875 
L 8.015625 -13.1875 
Q 14.5 -2 17.703125 9.0625 
Q 20.90625 20.125 20.90625 31.390625 
Q 20.90625 42.671875 17.703125 53.65625 
Q 14.5 64.65625 8.015625 75.875 
z
" id="DejaVuSans-41"/>
       <path d="M 10.59375 45.40625 
L 73.1875 45.40625 
L 73.1875 37.203125 
L 10.59375 37.203125 
z
M 10.59375 25.484375 
L 73.1875 25.484375 
L 73.1875 17.1875 
L 10.59375 17.1875 
z
" id="DejaVuSans-61"/>
       <path d="M 8.9375 31.34375 
L 22.703125 75.875 
L 31 75.875 
L 17.234375 31.34375 
L 31 -13.1875 
L 22.703125 -13.1875 
z
" id="DejaVuSans-10216"/>
       <path d="M 53.609375 52.59375 
L 51.8125 43.703125 
Q 48.578125 46.046875 44.9375 47.21875 
Q 41.3125 48.390625 37.40625 48.390625 
Q 33.109375 48.390625 29.21875 46.875 
Q 25.34375 45.359375 22.703125 42.578125 
Q 18.5 38.328125 16.203125 32.609375 
Q 13.921875 26.90625 13.921875 20.796875 
Q 13.921875 13.421875 17.609375 9.8125 
Q 21.296875 6.203125 28.8125 6.203125 
Q 32.515625 6.203125 36.6875 7.328125 
Q 40.875 8.453125 45.40625 10.6875 
L 43.703125 1.8125 
Q 39.796875 0.203125 35.671875 -0.609375 
Q 31.546875 -1.421875 27.203125 -1.421875 
Q 16.3125 -1.421875 10.453125 4.015625 
Q 4.59375 9.46875 4.59375 19.578125 
Q 4.59375 28.078125 7.640625 35.234375 
Q 10.6875 42.390625 16.703125 48.09375 
Q 20.796875 52 26.3125 54 
Q 31.84375 56 38.375 56 
Q 42.1875 56 45.9375 55.140625 
Q 49.703125 54.296875 53.609375 52.59375 
z
" id="DejaVuSans-Oblique-99"/>
       <path d="M 39.703125 73.25 
L 44.09375 73.25 
L 63.234375 54 
L 57.375 48.140625 
L 46.046875 59.578125 
L 46.046875 0 
L 37.75 0 
L 37.75 59.578125 
L 26.3125 48.140625 
L 20.453125 54 
z
" id="DejaVuSans-8593"/>
       <path d="M 20.703125 72.90625 
L 29.296875 72.90625 
L 29.296875 52.390625 
L 47.21875 52.390625 
L 47.21875 44.921875 
L 29.296875 44.921875 
L 29.296875 -9.625 
L 20.703125 -9.625 
L 20.703125 44.921875 
L 2.78125 44.921875 
L 2.78125 52.390625 
L 20.703125 52.390625 
z
" id="DejaVuSans-8224"/>
       <path d="M 30.078125 31.34375 
L 16.3125 -13.1875 
L 8.015625 -13.1875 
L 21.78125 31.34375 
L 8.015625 75.875 
L 16.3125 75.875 
z
" id="DejaVuSans-10217"/>
      </defs>
      <use transform="translate(0 0.796875)" xlink:href="#DejaVuSans-8722"/>
      <use transform="translate(83.789062 0.796875)" xlink:href="#DejaVuSans-Oblique-71"/>
      <use transform="translate(161.279297 0.796875)" xlink:href="#DejaVuSans-40"/>
      <use transform="translate(200.292969 0.796875)" xlink:href="#DejaVuSans-Oblique-964"/>
      <use transform="translate(260.498047 0.796875)" xlink:href="#DejaVuSans-41"/>
      <use transform="translate(318.994141 0.796875)" xlink:href="#DejaVuSans-61"/>
      <use transform="translate(422.265625 0.796875)" xlink:href="#DejaVuSans-10216"/>
      <use transform="translate(461.279297 0.796875)" xlink:href="#DejaVuSans-Oblique-99"/>
      <use transform="translate(529.897461 -15.609375)scale(0.7)" xlink:href="#DejaVuSans-8593"/>
      <use transform="translate(604.921875 0.796875)" xlink:href="#DejaVuSans-40"/>
      <use transform="translate(643.935547 0.796875)" xlink:href="#DejaVuSans-Oblique-964"/>
      <use transform="translate(704.140625 0.796875)" xlink:href="#DejaVuSans-41"/>
      <use transform="translate(743.154297 0.796875)" xlink:href="#DejaVuSans-Oblique-99"/>
      <use transform="translate(816.422357 43.965625)scale(0.7)" xlink:href="#DejaVuSans-8224"/>
      <use transform="translate(811.772461 -26.546875)scale(0.7)" xlink:href="#DejaVuSans-8593"/>
      <use transform="translate(886.796875 0.796875)" xlink:href="#DejaVuSans-40"/>
      <use transform="translate(925.810547 0.796875)" xlink:href="#DejaVuSans-48"/>
      <use transform="translate(989.433594 0.796875)" xlink:href="#DejaVuSans-41"/>
      <use transform="translate(1028.447266 0.796875)" xlink:href="#DejaVuSans-10217"/>
     </g>
    </g>
    <g id="line2d_20">
     <path d="M 299.855 41.198438 
L 319.855 41.198438 
" style="fill:none;stroke:#ff7f0e;stroke-linecap:square;stroke-width:1.5;"/>
    </g>
    <g id="line2d_21"/>
    <g id="text_17">
     <!-- $d(\tau) = \langle n_\uparrow(\tau) n_\downarrow(0) \rangle$ -->
     <g transform="translate(327.855 44.698438)scale(0.1 -0.1)">
      <defs>
       <path d="M 41.796875 8.203125 
Q 38.1875 3.46875 33.25 1.015625 
Q 28.328125 -1.421875 22.3125 -1.421875 
Q 14.109375 -1.421875 9.34375 4.171875 
Q 4.59375 9.765625 4.59375 19.484375 
Q 4.59375 27.59375 7.46875 34.9375 
Q 10.359375 42.28125 15.828125 48.09375 
Q 19.4375 51.953125 23.96875 53.96875 
Q 28.515625 56 33.5 56 
Q 38.765625 56 42.796875 53.453125 
Q 46.828125 50.921875 49.03125 46.1875 
L 54.890625 75.984375 
L 63.921875 75.984375 
L 49.125 0 
L 40.09375 0 
z
M 13.921875 21.09375 
Q 13.921875 14.015625 17.109375 10.0625 
Q 20.3125 6.109375 25.984375 6.109375 
Q 30.171875 6.109375 33.765625 8.125 
Q 37.359375 10.15625 40.09375 14.109375 
Q 42.96875 18.21875 44.625 23.578125 
Q 46.296875 28.953125 46.296875 34.1875 
Q 46.296875 40.96875 43.09375 44.765625 
Q 39.890625 48.578125 34.28125 48.578125 
Q 30.03125 48.578125 26.359375 46.578125 
Q 22.703125 44.578125 20.125 40.828125 
Q 17.28125 36.765625 15.59375 31.390625 
Q 13.921875 26.03125 13.921875 21.09375 
z
" id="DejaVuSans-Oblique-100"/>
       <path d="M 55.71875 33.015625 
L 49.3125 0 
L 40.28125 0 
L 46.6875 32.671875 
Q 47.125 34.96875 47.359375 36.71875 
Q 47.609375 38.484375 47.609375 39.5 
Q 47.609375 43.609375 45.015625 45.890625 
Q 42.4375 48.1875 37.796875 48.1875 
Q 30.5625 48.1875 25.34375 43.375 
Q 20.125 38.578125 18.5 30.328125 
L 12.5 0 
L 3.515625 0 
L 14.109375 54.6875 
L 23.09375 54.6875 
L 21.296875 46.09375 
Q 25.046875 50.828125 30.3125 53.40625 
Q 35.59375 56 41.40625 56 
Q 48.640625 56 52.609375 52.09375 
Q 56.59375 48.1875 56.59375 41.109375 
Q 56.59375 39.359375 56.375 37.359375 
Q 56.15625 35.359375 55.71875 33.015625 
z
" id="DejaVuSans-Oblique-110"/>
       <path d="M 44.09375 -0.34375 
L 39.703125 -0.34375 
L 20.453125 18.890625 
L 26.3125 24.75 
L 37.75 13.328125 
L 37.75 72.90625 
L 46.046875 72.90625 
L 46.046875 13.328125 
L 57.375 24.75 
L 63.234375 18.890625 
z
" id="DejaVuSans-8595"/>
      </defs>
      <use transform="translate(0 0.015625)" xlink:href="#DejaVuSans-Oblique-100"/>
      <use transform="translate(63.476562 0.015625)" xlink:href="#DejaVuSans-40"/>
      <use transform="translate(102.490234 0.015625)" xlink:href="#DejaVuSans-Oblique-964"/>
      <use transform="translate(162.695312 0.015625)" xlink:href="#DejaVuSans-41"/>
      <use transform="translate(221.191406 0.015625)" xlink:href="#DejaVuSans-61"/>
      <use transform="translate(324.462891 0.015625)" xlink:href="#DejaVuSans-10216"/>
      <use transform="translate(363.476562 0.015625)" xlink:href="#DejaVuSans-Oblique-110"/>
      <use transform="translate(440.493164 -16.390625)scale(0.7)" xlink:href="#DejaVuSans-8593"/>
      <use transform="translate(515.517578 0.015625)" xlink:href="#DejaVuSans-40"/>
      <use transform="translate(554.53125 0.015625)" xlink:href="#DejaVuSans-Oblique-964"/>
      <use transform="translate(614.736328 0.015625)" xlink:href="#DejaVuSans-41"/>
      <use transform="translate(653.75 0.015625)" xlink:href="#DejaVuSans-Oblique-110"/>
      <use transform="translate(730.766602 -16.390625)scale(0.7)" xlink:href="#DejaVuSans-8595"/>
      <use transform="translate(805.791016 0.015625)" xlink:href="#DejaVuSans-40"/>
      <use transform="translate(844.804688 0.015625)" xlink:href="#DejaVuSans-48"/>
      <use transform="translate(908.427734 0.015625)" xlink:href="#DejaVuSans-41"/>
      <use transform="translate(947.441406 0.015625)" xlink:href="#DejaVuSans-10217"/>
     </g>
    </g>
    <g id="line2d_22">
     <path d="M 299.855 55.878125 
L 319.855 55.878125 
" style="fill:none;stroke:#2ca02c;stroke-linecap:square;stroke-width:1.5;"/>
    </g>
    <g id="line2d_23"/>
    <g id="text_18">
     <!-- $\chi(\tau) = \langle S_+(\tau) S_-(0) \rangle$ -->
     <g transform="translate(327.855 59.378125)scale(0.1 -0.1)">
      <defs>
       <path d="M 30.03125 -12.203125 
L 26.421875 6.5 
L 6.15625 -20.84375 
L -4.4375 -20.84375 
L 24.265625 17.828125 
L 19.828125 40.828125 
Q 18.65625 46.96875 11.140625 46.96875 
L 8.734375 46.96875 
L 10.203125 54.6875 
L 13.625 54.59375 
Q 26.171875 54.25 27.734375 46.09375 
L 31.34375 27.390625 
L 51.609375 54.734375 
L 62.203125 54.734375 
L 33.5 16.0625 
L 37.9375 -6.9375 
Q 39.109375 -13.09375 46.625 -13.09375 
L 49.03125 -13.09375 
L 47.5625 -20.796875 
L 44.140625 -20.703125 
Q 31.59375 -20.359375 30.03125 -12.203125 
z
" id="DejaVuSans-Oblique-967"/>
       <path d="M 60.296875 70.515625 
L 58.40625 60.890625 
Q 53.46875 63.53125 48.609375 64.875 
Q 43.75 66.21875 39.203125 66.21875 
Q 30.375 66.21875 25.140625 62.359375 
Q 19.921875 58.5 19.921875 52.09375 
Q 19.921875 48.578125 21.84375 46.703125 
Q 23.78125 44.828125 31.78125 42.671875 
L 37.703125 41.21875 
Q 47.703125 38.625 51.609375 34.640625 
Q 55.515625 30.671875 55.515625 23.484375 
Q 55.515625 12.453125 46.84375 5.515625 
Q 38.1875 -1.421875 24.03125 -1.421875 
Q 18.21875 -1.421875 12.359375 -0.265625 
Q 6.5 0.875 0.59375 3.21875 
L 2.59375 13.375 
Q 8.015625 10.015625 13.453125 8.296875 
Q 18.890625 6.59375 24.3125 6.59375 
Q 33.546875 6.59375 39.109375 10.6875 
Q 44.671875 14.796875 44.671875 21.390625 
Q 44.671875 25.78125 42.453125 28.046875 
Q 40.234375 30.328125 32.90625 32.171875 
L 27 33.6875 
Q 16.890625 36.328125 13.203125 39.765625 
Q 9.515625 43.21875 9.515625 49.421875 
Q 9.515625 60.296875 17.890625 67.25 
Q 26.265625 74.21875 39.703125 74.21875 
Q 44.921875 74.21875 50.046875 73.28125 
Q 55.171875 72.359375 60.296875 70.515625 
z
" id="DejaVuSans-Oblique-83"/>
       <path d="M 46 62.703125 
L 46 35.5 
L 73.1875 35.5 
L 73.1875 27.203125 
L 46 27.203125 
L 46 0 
L 37.796875 0 
L 37.796875 27.203125 
L 10.59375 27.203125 
L 10.59375 35.5 
L 37.796875 35.5 
L 37.796875 62.703125 
z
" id="DejaVuSans-43"/>
      </defs>
      <use transform="translate(0 0.125)" xlink:href="#DejaVuSans-Oblique-967"/>
      <use transform="translate(59.179688 0.125)" xlink:href="#DejaVuSans-40"/>
      <use transform="translate(98.193359 0.125)" xlink:href="#DejaVuSans-Oblique-964"/>
      <use transform="translate(158.398438 0.125)" xlink:href="#DejaVuSans-41"/>
      <use transform="translate(216.894531 0.125)" xlink:href="#DejaVuSans-61"/>
      <use transform="translate(320.166016 0.125)" xlink:href="#DejaVuSans-10216"/>
      <use transform="translate(359.179688 0.125)" xlink:href="#DejaVuSans-Oblique-83"/>
      <use transform="translate(436.293945 -16.28125)scale(0.7)" xlink:href="#DejaVuSans-43"/>
      <use transform="translate(511.318359 0.125)" xlink:href="#DejaVuSans-40"/>
      <use transform="translate(550.332031 0.125)" xlink:href="#DejaVuSans-Oblique-964"/>
      <use transform="translate(610.537109 0.125)" xlink:href="#DejaVuSans-41"/>
      <use transform="translate(649.550781 0.125)" xlink:href="#DejaVuSans-Oblique-83"/>
      <use transform="translate(726.665039 -16.28125)scale(0.7)" xlink:href="#DejaVuSans-8722"/>
      <use transform="translate(801.689453 0.125)" xlink:href="#DejaVuSans-40"/>
      <use transform="translate(840.703125 0.125)" xlink:href="#DejaVuSans-48"/>
      <use transform="translate(904.326172 0.125)" xlink:href="#DejaVuSans-41"/>
      <use transform="translate(943.339844 0.125)" xlink:href="#DejaVuSans-10217"/>
     </g>
    </g>
   </g>
  </g>
 </g>
 <defs>
  <clipPath id="pec74757aea">
   <rect height="292.84" width="409.97" x="33.685" y="10.8"/>
  </clipPath>
 </defs>
</svg>
